<svg width="44" height="25" viewBox="0 0 44 25" fill="none" xmlns="http://www.w3.org/2000/svg">
<g clip-path="url(#clip0_2001_110)">
<g clip-path="url(#clip1_2001_110)">
<path fill-rule="evenodd" clip-rule="evenodd" d="M0.871805 12.012C1.36606 11.5849 1.83422 11.1086 2.22823 10.5863C2.69047 9.97361 2.7718 9.46496 2.93852 8.73794C3.13286 7.89021 3.45297 7.07178 3.88237 6.31601C4.60183 5.05017 5.78725 3.49346 7.01744 2.6867C7.44104 2.40898 7.9701 2.25222 8.45949 2.38096C8.77356 2.4636 9.04669 2.65482 9.34475 2.78426C12.261 4.04998 13.9607 -0.0858917 16.6822 0.348043C17.248 0.438251 17.7351 0.781735 18.2431 1.04712C19.7279 1.82269 21.47 1.95165 23.1386 1.81884C24.8073 1.68603 26.4476 1.30879 28.1121 1.13093C32.198 0.694437 35.7512 2.63957 38.7693 5.25517C38.901 5.36935 39.0401 5.50054 39.0633 5.67362C39.0866 5.84671 38.9141 6.04414 38.7551 5.9729C39.5966 6.35062 39.768 8.02232 39.7986 8.78264C39.8373 9.74362 39.9149 10.6852 39.8068 11.6435C39.6918 12.6631 39.4767 13.7382 39.8606 14.7286C40.2666 15.7761 41.208 16.4468 42.0432 17.1324C43.0508 17.9592 43.6147 18.6637 43.6833 20.0136C43.72 20.7352 43.7199 21.4583 43.7198 22.1809C43.7198 22.4838 43.7325 22.8139 43.6485 23.1079C43.5181 23.565 43.3948 23.487 42.9874 23.6232C42.6568 23.7339 42.3108 23.9608 40.8669 21.9687C39.4496 20.0136 37.8708 19.2643 36.9886 19.2201C36.1066 19.1758 35.6874 22.7151 35.4889 23.0036C35.0543 23.635 34.8207 24.1092 33.9868 24.1599C33.0123 24.2194 32.0351 24.1988 31.0606 24.1478C30.4316 24.115 29.6155 24.3421 29.0521 23.9626C28.3901 23.5168 29.092 23.0237 29.502 22.7808C30.4725 22.2055 31.6733 22.4948 31.8277 21.4769C31.982 20.4591 31.7615 18.2466 31.4307 17.6492C31.0998 17.0517 30.5925 16.8747 30.1294 16.8969C29.6663 16.9189 27.1961 16.8969 26.2698 16.4986C25.3435 16.1003 24.7039 15.7242 24.351 15.8348C23.9981 15.9453 24.0637 16.4287 24.1919 17.9085C24.331 19.5127 24.1284 21.0749 23.5538 22.5852C23.446 22.8684 23.3186 23.1581 23.0869 23.3526C22.5765 23.7813 21.7399 23.6239 21.1238 23.6122C20.6871 23.6039 20.2501 23.5978 19.8136 23.5842C19.5508 23.5761 19.2748 23.5272 19.0736 23.3574C18.6905 23.0339 18.8575 22.4294 19.2704 22.2285C19.9982 21.8746 21.1971 22.3842 21.2632 21.2115C21.3183 20.235 20.6096 19.1244 20.1523 18.3104C19.5193 17.1837 18.7187 16.1471 17.9798 15.0873C17.8252 14.8657 17.6662 14.6395 17.4457 14.4837C16.3471 13.7079 15.6528 15.2026 15.3415 16.0397C14.97 17.0387 14.7679 18.1049 14.2181 19.0271C13.7048 19.8879 13.0057 20.6279 12.2329 21.2588C10.8683 22.3732 9.15981 23.5457 7.3937 23.832C6.2677 24.0146 4.59534 23.8219 3.77367 22.9152C3.41133 22.5153 5.35634 22.4015 5.55532 22.367C6.61415 22.1834 7.33406 21.5451 7.81115 20.5875C9.10145 17.9968 10.181 15.3359 10.9901 12.5556C11.0224 12.4443 11.0526 12.316 10.9888 12.2194C10.948 12.1575 10.8768 12.1236 10.808 12.0964C10.1466 11.8347 9.31736 11.8763 8.63341 12.0118C7.79177 12.1787 7.33094 13.0212 6.54476 13.3062C5.39335 13.7236 3.08159 13.9643 2.01266 13.2308C1.50529 12.8825 0.34065 12.4707 0.871805 12.012Z" fill="white"/>
</g>
</g>
<defs>
<clipPath id="clip0_2001_110">
<rect width="42.9948" height="23.8802" fill="white" transform="translate(0.730957 0.315979)"/>
</clipPath>
<clipPath id="clip1_2001_110">
<rect width="42.9844" height="23.8802" fill="white" transform="translate(0.736084 0.315979)"/>
</clipPath>
</defs>
</svg>
