<svg width="449" height="545" viewBox="0 0 449 545" fill="none" xmlns="http://www.w3.org/2000/svg">
<g clip-path="url(#clip0_2001_129)">
<path d="M19.1045 0.934082L190.649 14.6825L183.327 175.905L424.642 402.831C424.642 402.831 424.642 411.615 426.564 413.89C428.486 416.165 433.131 419.233 434.253 421.509C435.427 423.783 434.252 429.921 436.174 432.196C438.096 434.471 448.667 439.815 448.667 439.815C448.667 439.815 445.036 444.789 443.114 446.694C441.192 448.599 433.877 452.409 432.328 455.848C430.78 459.288 430.405 468.071 431.153 471.51C431.9 474.949 432.701 480.293 431.153 481.828C429.604 483.362 426.507 487.172 424.959 488.336C423.411 489.5 421.862 489.5 422.236 491.405C422.609 493.31 426.08 495.585 426.079 498.284C426.079 500.982 423.784 504.792 423.783 508.231C423.783 511.67 425.705 513.575 429.175 513.945C432.645 514.316 437.665 513.204 436.864 516.644C436.116 520.082 433.019 528.126 430.296 529.608C427.573 531.141 424.102 529.608 424.102 529.608L306.695 544.111C306.695 544.111 305.146 535.011 303.225 532.312C301.303 529.613 300.128 527.339 300.503 524.693C300.876 521.994 296.285 509.402 293.936 504.852C291.587 500.301 279.308 491.466 276.959 489.19C274.663 486.915 247.648 473.9 247.648 473.9C247.648 473.9 245.9 471.51 243.416 468.08C240.931 464.65 242.344 462.789 239.322 461.185C236.299 459.581 231.845 459.774 231.845 459.774C231.845 459.774 224.156 456.705 221.807 455.965C219.458 455.224 211.396 453.69 210.222 451.785C209.047 449.88 202.107 438.822 194.793 437.288C187.478 435.754 184.007 435.384 181.284 435.754C178.562 436.125 175.892 435.014 172.795 433.479C169.698 431.946 159.288 431.575 155.443 432.316L151.599 433.057L143.912 421.999L147.009 417.819L143.538 413.216L147.009 409.035L142.791 404.433L147.009 400.623L144.287 394.485C144.287 394.485 145.835 392.951 145.462 391.046C145.088 389.141 141.244 387.977 139.695 388.347C138.147 388.718 134.303 384.538 133.929 381.839C133.556 379.141 137.026 379.934 137.4 378.401C137.774 376.866 134.677 372.263 132.008 371.522C129.285 370.782 127.79 372.263 124.693 366.548C121.597 360.834 124.32 359.3 120.85 358.93C117.38 358.56 117.005 358.189 115.084 353.956C113.162 349.776 110.065 350.147 108.517 345.543C106.969 340.941 111.614 341.734 109.692 339.829C107.77 337.924 101.577 331.787 99.2813 329.882C96.9855 327.977 91.1663 321.47 91.1663 321.47L89.9926 303.903C89.9926 303.903 92.7153 305.437 95.0111 302.368L97.3069 299.3C97.3069 299.3 100.404 298.135 99.2295 295.119C98.0552 292.103 94.5846 289.405 94.5846 289.405C94.5846 289.405 95.7594 288.241 94.2115 286.336C92.663 284.431 85.7219 285.173 85.7219 285.173L71.8411 271.734C71.8411 271.734 70.6663 271.787 71.8411 265.49C73.0163 259.194 76.0595 258.4 74.5648 256.124C73.07 253.849 69.5462 249.987 68.7989 246.178C68.0515 242.368 68.052 238.558 70.7215 238.929C73.4447 239.298 76.4874 246.177 79.5843 247.711C82.6807 249.245 81.8801 249.245 85.7771 251.891C89.6213 254.59 84.6028 251.15 81.9333 245.383C79.2106 239.669 77.289 237.341 78.4637 233.901C79.6385 230.462 81.1864 229.298 81.9343 227.393C82.6816 225.488 81.5606 223.213 78.8374 225.118C76.1147 227.023 76.1147 228.928 75.3668 231.626C74.6195 234.325 73.4447 236.97 71.5226 236.97C69.6005 236.97 64.2083 230.833 61.4855 229.722C58.7623 228.558 56.8402 223.584 54.5444 223.585C52.2486 223.585 49.5264 222.844 49.5264 222.844L53.7443 215.596C53.7443 215.596 51.0216 210.621 49.5268 209.087C47.9784 207.553 46.0568 206.389 45.6826 202.95C45.3094 199.511 45.3094 197.606 45.3094 197.606C45.3094 197.606 37.6209 195.701 35.646 191.098C33.6707 186.495 33.7244 184.22 30.628 180.78C27.5311 177.342 24.061 176.601 22.5126 172.368C20.9646 168.188 24.0615 161.68 22.5135 157.87C20.9651 154.06 18.6693 153.267 19.0435 148.293C19.4176 143.319 24.4362 137.605 23.6893 134.165C22.9419 130.727 15.5748 115.806 15.2012 114.695C14.8275 113.583 15.2012 108.557 15.2012 108.557C15.2012 108.557 0.252563 97.9752 0.252563 95.2764C0.252563 92.5781 1.80101 91.0966 2.54837 89.1388C3.29621 87.2338 0.253052 85.3288 0.253052 85.3288C0.253052 85.3288 5.64623 70.0373 7.56836 68.503C9.49048 66.9682 11.7863 69.667 12.9611 66.9682L14.1358 64.2694L12.2137 63.5289C12.2137 63.5289 16.0579 56.28 16.859 53.9515C17.6601 51.6235 13.389 48.6076 14.5637 45.5391C15.7385 42.47 19.9564 38.2897 21.1317 31.7814C22.3064 25.2735 18.4094 14.9556 16.4878 13.4213C14.5657 11.887 15.313 8.07745 15.313 8.07745L19.1045 0.934082Z" fill="#222222"/>
</g>
<defs>
<clipPath id="clip0_2001_129">
<rect width="448.414" height="543.177" fill="white" transform="translate(0.252563 0.934082)"/>
</clipPath>
</defs>
</svg>
